<svg version="1.1" id="Layer_1" xmlns="http://www.w3.org/2000/svg" xmlns:xlink="http://www.w3.org/1999/xlink" x="0px" y="0px"
	 width="100%" viewBox="0 0 557 423" enable-background="new 0 0 557 423" xml:space="preserve">
<path fill="#FFFFFF" opacity="1.000000" stroke="none" 
	d="
M558.000000,4.000001 
	C558.000000,143.969131 558.000000,283.938263 558.000000,423.953705 
	C372.405121,423.953705 186.810242,423.953705 1.107674,423.953705 
	C1.107674,283.102936 1.107674,142.205765 1.107674,1.000000 
	C177.691452,1.000000 354.383087,1.000000 531.566528,1.352622 
	C535.002869,5.899332 539.383545,8.185660 544.145020,7.799239 
	C548.835205,7.418597 553.387329,5.335902 558.000000,4.000001 
M431.701447,328.008911 
	C433.402161,328.342163 435.102905,328.675415 436.954926,329.762482 
	C438.926514,336.335419 442.351929,341.466095 449.904877,342.073212 
	C456.216827,342.580536 460.232452,340.092133 463.489899,333.103668 
	C460.938934,334.251129 458.999481,334.617065 457.803223,335.760529 
	C454.730408,338.697845 451.013947,339.179535 447.703949,337.563568 
	C445.140717,336.312103 443.404816,333.365967 441.301147,331.173187 
	C441.662231,330.700409 442.023346,330.227600 442.384460,329.754822 
	C449.605927,329.754822 456.827393,329.754822 464.006256,329.754822 
	C464.777527,323.885925 462.370026,319.746033 459.351044,316.051025 
	C463.389160,313.286438 467.489441,310.603394 471.375946,307.639984 
	C471.797119,307.318878 471.287384,305.183716 470.683289,304.219696 
	C468.667603,301.002991 466.548737,297.829498 464.208710,294.843750 
	C462.096710,292.149078 460.236572,286.126495 456.272552,293.505768 
	C456.107697,293.812653 455.384583,293.821289 454.920502,293.965668 
	C447.868927,296.159210 447.094757,297.194489 446.984772,304.340851 
	C446.963287,305.734528 446.761108,307.125397 446.629242,308.670227 
	C436.805695,304.509735 433.004974,305.542145 428.335815,313.256348 
	C427.920563,313.942413 427.293732,314.500488 425.999969,315.056793 
	C416.564728,313.391113 410.390289,316.355438 408.891846,324.432739 
	C408.169006,328.329285 409.739655,332.651337 409.516907,336.863617 
	C405.067291,335.571198 400.617676,334.278778 396.043213,332.150055 
	C395.857635,325.656433 397.252228,320.248077 404.678436,318.412109 
	C405.442657,318.223206 405.728485,316.099304 406.236328,314.873260 
	C405.811981,314.515961 405.387634,314.158661 404.963287,313.801361 
	C401.958099,315.536530 398.952942,317.271698 396.145294,318.892822 
	C396.066833,317.943115 395.946442,316.486115 395.802856,314.748505 
	C394.378113,314.905060 393.168976,315.037933 391.694244,315.199982 
	C391.694244,323.365723 391.694244,331.173462 390.960876,339.123413 
	C390.389221,339.680695 389.445007,340.157928 389.305389,340.808014 
	C388.272400,345.616241 388.914734,350.147797 393.022308,353.302338 
	C396.420319,355.911987 400.356659,357.168762 404.607605,355.157440 
	C409.322174,352.926697 411.457520,348.991516 410.981689,343.530243 
	C410.783905,341.259827 410.484955,338.998169 410.830902,337.060852 
	C415.964264,343.061005 422.124207,343.308197 428.878448,341.072449 
	C426.975403,342.413300 424.984650,343.649536 423.206848,345.139771 
	C422.337952,345.868134 421.865417,347.069336 421.213501,348.056519 
	C422.409821,348.663696 423.652161,349.861450 424.794189,349.772461 
	C428.989197,349.445404 435.082886,343.672577 435.609589,339.380707 
	C435.779724,337.994446 434.442688,336.423279 433.840179,334.319885 
	C433.564545,333.847504 433.288910,333.375092 432.927216,332.230377 
	C432.267090,330.821259 431.606964,329.412140 431.701447,328.008911 
M99.995895,137.185059 
	C99.981247,136.360382 100.097679,135.507797 99.929062,134.715897 
	C99.229546,131.430618 96.659790,130.045624 94.087547,131.389694 
	C92.543365,132.196564 91.068962,135.499725 91.495583,137.194595 
	C92.247040,140.180038 94.893967,140.937668 97.742279,138.849319 
	C98.368446,138.390213 99.243835,138.271042 100.003639,138.766418 
	C100.344238,140.003433 100.307236,141.952744 101.085022,142.365036 
	C107.438530,145.733017 113.879227,148.966415 120.488747,151.782227 
	C121.280075,152.119370 123.861816,149.964340 124.456421,148.495834 
	C124.908493,147.379333 123.972763,144.832153 122.874527,144.113556 
	C119.015915,141.588760 114.683289,139.793991 110.790955,137.313553 
	C106.856018,134.805969 103.424187,135.115738 99.995895,137.185059 
M139.726105,317.468872 
	C137.761887,316.360046 135.797684,315.251251 133.833466,314.142426 
	C133.666000,314.521515 133.498520,314.900604 133.331039,315.279694 
	C134.249329,317.131165 135.167618,318.982605 135.792343,321.561157 
	C135.054550,325.502991 134.316772,329.444855 133.558121,333.498108 
	C132.788452,332.435181 131.866776,331.162354 131.064316,329.058746 
	C130.805130,320.026733 126.193893,314.627350 118.429070,314.263916 
	C111.134987,313.922516 105.367386,319.065826 104.382408,326.790131 
	C103.524300,333.519531 107.032570,338.601440 114.993248,342.906403 
	C115.334526,344.606750 115.675797,346.307068 115.299652,347.931580 
	C107.407402,342.816895 104.714729,342.670990 99.455093,347.072998 
	C95.055008,350.755707 93.919342,356.072327 96.522102,360.803802 
	C99.396362,366.028809 105.337990,368.340820 110.481468,366.235718 
	C116.701714,363.689911 118.971008,359.579285 117.650253,353.362518 
	C117.344276,351.922302 117.208504,350.445953 117.609169,349.298889 
	C124.732109,356.527100 130.495773,355.194550 136.003571,346.522614 
	C136.356110,347.213013 136.822067,347.745850 136.894806,348.327820 
	C137.497375,353.149536 133.975052,354.329865 130.513123,355.841614 
	C129.465729,356.298981 129.005829,358.101746 128.276840,359.288239 
	C129.525024,359.678894 131.007233,360.715302 131.985397,360.360840 
	C142.397812,356.587646 145.451904,347.464386 138.023834,340.481537 
	C138.408966,339.996429 138.794098,339.511322 139.977127,339.140198 
	C143.234238,339.908508 146.586761,341.487610 149.917236,338.535400 
	C151.896347,339.892273 153.875473,341.249115 155.854599,342.605988 
	C156.201309,342.169312 156.548035,341.732605 156.894745,341.295929 
	C155.856110,339.671021 154.817459,338.046112 154.112213,335.716309 
	C155.286331,332.023071 156.460449,328.329834 157.597641,324.752716 
	C159.284775,325.358917 161.587799,326.186371 164.041962,327.934296 
	C164.048203,331.546783 164.149506,335.162384 164.031708,338.770813 
	C163.931000,341.855682 165.305374,342.305054 168.258331,341.356018 
	C168.258331,336.162018 168.258331,331.093781 168.924225,325.928436 
	C170.220657,324.726471 171.366898,323.270111 172.854507,322.392029 
	C174.435272,321.458954 176.339722,321.074188 178.118301,321.178558 
	C177.692337,324.431152 176.736008,327.720215 176.956757,330.928314 
	C177.351059,336.658936 182.380859,341.348969 188.017807,342.060699 
	C194.593277,342.890930 199.400940,340.256195 202.523819,333.104462 
	C199.989120,334.262360 198.480103,335.223663 196.832794,335.647186 
	C193.485703,336.507782 189.821625,338.137024 186.749039,337.434326 
	C184.263885,336.865936 182.453979,333.345093 180.344528,331.133911 
	C180.694580,330.744598 181.044617,330.355316 181.394653,329.966034 
	C185.034531,329.966034 188.674393,329.966034 192.314255,329.966034 
	C195.914444,329.966034 199.514618,329.966034 203.079330,329.966034 
	C203.293640,318.105713 197.070572,313.126221 184.999100,314.138916 
	C183.676010,306.205963 177.719727,301.562866 172.262360,296.235901 
	C171.544434,298.285645 171.370483,300.226379 172.186325,301.563019 
	C174.595963,305.510834 177.270111,309.318939 180.119339,312.963989 
	C181.018570,314.114380 182.796356,314.578033 183.602875,315.828278 
	C181.772079,317.363251 179.941269,318.898193 178.058167,319.552856 
	C175.741852,315.122528 173.650314,310.555237 171.054184,306.295441 
	C167.549927,300.545563 167.394897,300.663940 162.069656,304.292023 
	C161.408966,304.742096 160.536331,304.870972 159.781845,305.195129 
	C155.645370,306.972321 152.888245,309.757538 152.270218,314.819794 
	C150.946640,316.213593 149.623062,317.607361 147.969559,318.202179 
	C145.374451,318.125671 142.779358,318.049133 139.726105,317.468872 
M376.081879,342.824951 
	C379.959320,348.586945 383.675415,354.469452 387.826172,360.027313 
	C388.881165,361.439972 391.317719,361.820831 393.119446,362.675781 
	C392.825409,360.934357 393.019165,358.886932 392.152222,357.504913 
	C388.543915,351.753021 384.616119,346.201569 381.246887,340.096802 
	C382.881165,338.338806 384.515411,336.580780 386.149658,334.822784 
	C385.799347,334.336578 385.449036,333.850403 385.098694,333.364227 
	C383.351593,334.331421 381.705292,335.746887 379.835266,336.167572 
	C376.488007,336.920654 372.771698,337.978363 369.659973,337.171692 
	C367.465729,336.602844 366.015625,333.163422 364.233307,331.005615 
	C364.617310,330.659088 365.001343,330.312561 365.385376,329.966034 
	C368.866577,329.966034 372.347809,329.966034 375.829041,329.966034 
	C379.442078,329.966034 383.055084,329.966034 386.793304,329.966034 
	C387.298645,323.672729 385.389130,318.941681 380.308594,316.051422 
	C375.659393,313.406555 370.687683,313.588043 366.159546,316.474213 
	C361.337830,319.547516 359.697083,324.377594 360.221191,329.842987 
	C360.981140,337.768005 366.544861,341.988617 376.081879,342.824951 
M164.400131,102.698311 
	C162.351593,100.064056 160.303040,97.429802 158.595062,95.233482 
	C154.327515,97.846947 150.036865,99.276543 147.700195,102.244507 
	C145.391113,105.177391 145.056473,109.664757 143.838776,113.523819 
	C132.109756,111.641212 126.397179,114.257034 125.474213,122.140144 
	C124.764458,128.202240 130.068466,135.089050 136.033844,134.764542 
	C139.042130,134.600891 142.167709,132.673569 144.829041,130.919739 
	C149.473999,127.858696 147.840073,122.860382 147.599442,119.172554 
	C151.327957,119.797066 155.013718,121.376518 158.192505,120.671173 
	C161.256042,119.991394 163.795898,116.951622 166.632462,114.900497 
	C168.177307,119.732033 165.355637,121.764969 161.072144,123.232880 
	C159.860779,123.648003 159.103104,125.386963 158.137344,126.518761 
	C159.708328,126.858803 161.483139,127.850883 162.817413,127.433762 
	C171.931335,124.584534 174.404678,117.028679 169.049057,109.083755 
	C167.686386,107.062279 166.346420,105.025505 165.713684,103.070961 
	C166.165924,103.270676 166.680328,103.389587 167.060959,103.682396 
	C171.779465,107.312256 177.370621,108.164848 181.309174,105.822830 
	C186.097519,102.975510 187.369186,99.246872 186.066620,92.044022 
	C185.996140,91.654282 186.308044,91.195389 186.487488,90.623619 
	C187.042908,90.937508 187.504456,91.113899 187.862946,91.413574 
	C193.393036,96.036324 199.367371,95.096504 203.164200,89.005806 
	C203.505890,88.457695 203.882507,87.617050 204.365845,87.519142 
	C210.633591,86.249374 207.297379,83.161514 205.697662,80.497765 
	C204.588043,78.650108 203.346832,76.872421 202.054581,75.145653 
	C200.177200,72.636986 198.200821,70.202385 196.523972,68.064278 
	C194.431625,69.893875 193.305557,71.378616 191.810974,72.102547 
	C183.413361,76.170113 182.426056,77.929184 183.926559,87.068680 
	C183.985764,87.429314 183.642014,87.856110 183.467392,88.299362 
	C178.457809,84.551071 173.034821,83.886986 169.216888,86.458633 
	C164.748840,89.468185 163.465851,93.489388 164.813782,100.022293 
	C165.013062,100.988159 164.947174,102.008751 164.400131,102.698311 
M207.520142,106.793655 
	C207.520142,167.574112 207.520142,228.354584 207.520142,289.253510 
	C220.768951,289.253510 233.453094,289.253510 246.257950,289.253510 
	C246.257950,258.867981 246.257950,228.896835 246.990997,198.875000 
	C247.627090,199.758469 248.460754,200.559174 248.870514,201.537445 
	C260.243927,228.690720 271.599701,255.851456 282.894562,283.037506 
	C285.835449,290.116058 285.737946,290.156555 294.085114,289.659760 
	C305.309509,289.616791 316.533936,289.573822 328.437744,289.756439 
	C330.509216,289.756439 332.580688,289.756439 335.364349,289.756439 
	C333.973480,286.140686 332.832153,283.173676 331.865387,279.257416 
	C331.943878,252.507538 332.022369,225.757660 332.923004,198.999756 
	C333.747742,199.084732 334.594696,199.077255 335.393738,199.269196 
	C342.221008,200.909180 349.548096,197.235092 352.048798,190.883240 
	C353.020721,188.414490 348.527649,180.484619 346.429688,181.313309 
	C343.662354,182.406403 341.394623,184.764374 338.912109,186.578568 
	C339.142822,187.001770 339.373505,187.424973 339.604187,187.848175 
	C340.391052,187.848175 341.295715,188.101410 341.942535,187.800430 
	C343.841125,186.916962 346.252747,184.960159 347.127686,188.091980 
	C347.592987,189.757599 346.075226,192.602539 344.606384,194.065536 
	C340.261871,198.392746 336.167328,195.079910 331.965424,192.075943 
	C332.025085,187.720917 332.084778,183.365906 332.933472,178.990570 
	C335.497742,178.910126 338.071503,178.932800 340.621552,178.697952 
	C341.625916,178.605453 342.577332,177.938065 343.552856,177.532455 
	C342.950134,176.710510 342.403290,175.234848 341.735199,175.177765 
	C338.542847,174.904968 335.317596,175.016891 331.948914,174.067047 
	C331.948914,147.832153 331.948914,121.597244 331.948914,95.290611 
	C318.623566,95.290611 305.775024,95.290611 292.718597,95.290611 
	C292.718597,125.923798 292.718597,156.196945 292.351349,185.812378 
	C291.611664,184.333298 290.783234,182.891403 290.145569,181.369568 
	C278.931641,154.607285 267.529694,127.920052 256.727264,100.992371 
	C254.617798,95.734001 252.125549,93.944084 246.050247,94.978088 
	C234.725845,95.025795 223.401428,95.073502 211.202423,94.920738 
	C209.162262,94.920738 207.122116,94.920738 204.933411,94.920738 
	C205.928513,98.998970 206.763016,102.419052 207.520142,106.793655 
M308.209717,326.166077 
	C308.206665,321.569061 307.050598,317.518585 302.506134,315.395264 
	C297.040497,312.841522 292.660126,315.029785 288.983398,319.104980 
	C283.310089,313.225067 279.546234,312.917542 273.603363,316.683258 
	C271.361511,315.746674 269.943237,315.154205 268.039398,314.358856 
	C268.039398,323.171387 268.112030,330.835480 268.001495,338.496948 
	C267.960693,341.323822 268.750214,342.580536 272.228119,341.318848 
	C272.228119,335.977600 271.915771,330.490387 272.323395,325.057190 
	C272.671997,320.410095 275.865662,317.727783 279.882080,318.163177 
	C284.327454,318.645081 285.982117,321.684021 286.017426,325.828522 
	C286.054321,330.159943 286.129639,334.494476 286.008484,338.822632 
	C285.917114,342.087128 287.391815,342.411011 290.224060,341.303955 
	C290.224060,336.120483 290.036835,330.959991 290.277618,325.819519 
	C290.510468,320.848267 293.425934,318.038055 297.657684,318.117401 
	C301.572449,318.190796 303.925903,321.042908 304.016083,326.097229 
	C304.107697,331.231354 304.036285,336.368439 304.036285,341.656494 
	C305.598633,341.656494 306.702515,341.656494 308.213043,341.656494 
	C308.213043,336.657562 308.213043,331.852783 308.209717,326.166077 
M79.999496,144.538086 
	C80.999908,153.240494 81.771484,161.980743 83.199310,170.612442 
	C83.475426,172.281616 86.316811,173.526443 87.974854,174.967026 
	C89.315498,173.373734 91.648041,171.865768 91.793953,170.169693 
	C92.115158,166.436035 91.377777,162.602783 90.991241,158.818451 
	C89.999863,149.112762 89.162781,139.382767 87.761086,129.735550 
	C87.512085,128.021713 84.971619,125.592964 83.259735,125.385155 
	C80.691628,125.073418 78.711105,127.051620 78.984726,130.244858 
	C79.366295,134.697830 79.663704,139.157990 79.999496,144.538086 
M354.055359,378.265442 
	C353.668030,373.646118 353.380859,369.015564 352.865112,364.410645 
	C352.350922,359.819519 351.985382,355.149414 350.761658,350.733704 
	C350.328003,349.168945 347.582947,347.379822 345.848328,347.332367 
	C344.608398,347.298492 342.940277,349.829651 342.132782,351.533569 
	C341.563690,352.734528 342.023224,354.478363 342.188049,355.961548 
	C342.753235,361.048248 343.364838,366.130188 344.007416,371.207764 
	C344.919220,378.412689 345.854492,385.614807 346.819855,392.812744 
	C347.244049,395.975677 349.752167,396.682800 351.981232,395.800812 
	C353.598083,395.161011 355.636261,392.946899 355.653442,391.414215 
	C355.699280,387.335571 354.753876,383.245758 354.055359,378.265442 
M49.998714,377.537781 
	C50.980274,385.891449 51.964935,394.244781 52.941853,402.598999 
	C53.323418,405.862000 55.416256,407.830200 58.311649,406.717865 
	C59.989017,406.073486 61.490677,403.281647 61.821365,401.252502 
	C62.228436,398.754730 61.272346,396.050812 61.012337,393.425415 
	C59.970901,382.909637 59.169315,372.362549 57.733810,361.901825 
	C57.527088,360.395447 54.473103,358.773468 52.470257,358.274353 
	C51.692238,358.080444 49.213791,360.821594 49.172386,362.273193 
	C49.036354,367.041840 49.662552,371.832214 49.998714,377.537781 
M347.418427,318.969513 
	C348.608368,321.530548 350.528015,324.008820 350.829926,326.670593 
	C351.385101,331.565552 350.988281,336.568481 350.988281,341.526428 
	C351.446716,341.809692 351.905151,342.092987 352.363617,342.376251 
	C353.269257,341.405670 354.916016,340.464996 354.956604,339.459503 
	C355.171326,334.141510 355.337158,328.774109 354.843903,323.486877 
	C354.206390,316.653412 347.529236,312.606262 341.357422,315.113739 
	C339.286926,315.954956 337.574463,317.677368 335.686005,319.005646 
	C329.803680,313.241272 326.047577,312.911316 320.202484,317.033875 
	C318.490234,316.032166 317.127655,315.235046 314.989624,313.984253 
	C314.989624,323.172150 315.074097,330.988922 314.948944,338.802368 
	C314.897308,342.027191 316.282532,342.295410 319.012756,341.401215 
	C319.012756,336.226562 318.914185,331.243439 319.040039,326.266022 
	C319.169830,321.134003 322.179077,317.968079 326.516602,318.105621 
	C330.409119,318.229034 332.813690,321.085083 332.928833,326.073181 
	C333.047211,331.200653 332.955139,336.332977 332.955139,341.463196 
	C333.464050,341.730988 333.972992,341.998749 334.481903,342.266541 
	C335.324677,341.176514 336.811646,340.133148 336.894592,338.988037 
	C337.194794,334.845154 336.903046,330.663605 337.057770,326.504944 
	C337.294769,320.132446 340.275146,317.762054 347.418427,318.969513 
M468.505005,89.000801 
	C467.075378,87.305260 465.645752,85.609711 463.546844,83.120377 
	C458.760223,91.543808 464.963562,98.443718 464.312775,105.905487 
	C463.318207,105.597160 462.360840,105.484802 461.603851,105.035141 
	C457.323334,102.492500 453.136505,99.788277 448.804352,97.339722 
	C447.915283,96.837219 445.914215,96.725113 445.531097,97.246040 
	C444.821198,98.211235 444.266998,100.211670 444.800598,101.021362 
	C448.264679,106.277840 451.973358,111.379829 455.786804,116.391754 
	C456.328644,117.103912 457.873535,117.052895 458.954193,117.355103 
	C458.824951,116.222015 459.029083,114.895294 458.504364,113.991890 
	C456.883942,111.201950 454.985535,108.573456 453.195068,105.882263 
	C456.807526,106.635994 459.626740,108.460205 462.592072,110.003716 
	C464.109222,110.793388 465.887909,111.080467 467.548401,111.594696 
	C468.021606,109.768631 469.078186,107.865524 468.849243,106.132202 
	C468.338562,102.266052 467.186066,98.484688 466.295074,94.668777 
	C466.573822,94.514549 466.852539,94.360329 467.131287,94.206108 
	C470.012848,98.179222 472.894440,102.152344 475.776031,106.125465 
	C476.414978,105.866608 477.053894,105.607750 477.692841,105.348892 
	C477.282562,103.599449 477.274414,101.603523 476.382965,100.148949 
	C474.134155,96.479691 471.487518,93.054245 468.505005,89.000801 
M75.370369,335.313232 
	C75.374985,341.829895 75.374985,341.829895 79.697487,341.220795 
	C79.697487,336.324036 79.491074,331.347260 79.754402,326.395477 
	C80.028473,321.241486 83.448372,317.980316 87.846191,318.116913 
	C92.078331,318.248352 94.896370,321.444733 95.033165,326.606476 
	C95.164558,331.564514 95.061562,336.528748 95.061562,341.373596 
	C98.257782,342.579041 99.420525,341.716553 99.293564,338.681885 
	C99.140808,335.030884 99.102310,331.360748 99.286217,327.712616 
	C99.887314,315.789032 89.506500,310.448120 81.152321,316.730011 
	C79.144402,315.857788 77.573952,315.175629 75.370468,314.218445 
	C75.370468,321.758759 75.370468,328.058136 75.370369,335.313232 
M262.048553,333.224518 
	C262.311951,331.761932 262.729095,330.308075 262.812988,328.835266 
	C263.253601,321.099213 257.823212,314.827911 250.286652,314.266296 
	C242.762009,313.705566 236.597641,319.249237 236.029953,327.087463 
	C235.534164,333.932892 239.461578,340.050812 245.429062,341.728882 
	C252.124390,343.611664 257.963043,340.860077 262.048553,333.224518 
M217.243759,337.846466 
	C216.807617,337.605164 216.350143,337.395477 215.938538,337.117798 
	C210.554169,333.485016 209.210037,326.211395 213.055878,321.565155 
	C216.756699,317.094116 222.553680,317.367035 227.602295,321.961212 
	C228.604919,322.873596 230.437775,322.873627 232.674301,323.522583 
	C228.712570,315.651703 222.549362,312.870270 215.719360,314.956757 
	C209.525314,316.848969 206.090942,322.829224 206.856766,330.389038 
	C207.487869,336.618958 212.467026,341.658295 218.420197,342.092255 
	C225.378738,342.599487 230.371078,339.409088 232.340378,332.247711 
	C230.186462,333.353424 228.306900,333.744049 227.389969,334.898956 
	C224.858307,338.087738 221.727859,338.661438 217.243759,337.846466 
M448.563812,113.296623 
	C448.012146,112.466141 447.479858,111.621994 446.905670,110.807404 
	C443.108002,105.419678 437.545227,103.651245 432.110229,106.092651 
	C426.675903,108.533775 423.804047,114.731956 425.366028,120.648239 
	C426.921204,126.538483 433.037048,131.385727 438.417877,130.992783 
	C446.849915,130.377029 451.530762,122.782440 448.563812,113.296623 
M368.839630,163.684265 
	C365.884552,159.379593 358.905243,157.936188 354.556488,160.303467 
	C349.596100,163.003723 346.919525,168.804230 348.079224,174.596298 
	C348.888489,178.638123 355.232513,184.659149 359.221191,184.958572 
	C364.310150,185.340576 368.177612,183.155502 371.014069,178.968643 
	C374.690948,173.541214 372.389648,168.897964 368.839630,163.684265 
M388.664124,154.836288 
	C385.225311,152.528946 381.904877,150.004532 378.284576,148.029831 
	C376.984924,147.320923 374.791656,147.525436 373.343933,148.126480 
	C372.647095,148.415802 372.362518,150.646851 372.543732,151.904617 
	C372.919647,154.513733 373.654510,157.082001 374.380524,159.627472 
	C375.736603,164.382065 377.191620,169.108444 378.605438,173.846558 
	C379.266357,173.748734 379.927277,173.650909 380.588196,173.553070 
	C380.588196,171.766205 379.937378,169.590973 380.723663,168.273285 
	C382.361847,165.527969 384.577087,163.031677 386.966492,160.892426 
	C387.618225,160.308960 389.724548,161.414673 391.178986,161.646927 
	C392.967651,161.932526 394.772797,162.115265 396.570801,162.342484 
	C396.692230,161.720245 396.813629,161.097992 396.935059,160.475754 
	C394.394653,158.703430 391.854279,156.931107 388.664124,154.836288 
M79.682632,369.761871 
	C79.130547,369.399353 78.623367,368.909668 78.018677,368.696075 
	C75.261848,367.722137 72.624443,367.059601 70.780121,370.418732 
	C68.837112,373.957611 70.929970,375.685089 73.607254,377.037567 
	C78.151031,379.332886 82.647789,381.872894 87.449310,383.432800 
	C89.407585,384.069000 93.017036,383.164154 94.274071,381.639923 
	C96.514732,378.922974 93.738380,376.679840 91.494102,375.377777 
	C87.952484,373.323029 84.130226,371.752014 79.682632,369.761871 
M387.858124,367.054382 
	C382.566742,364.156799 377.192139,361.398712 372.015381,358.309082 
	C368.940948,356.474152 366.156708,356.142090 364.472168,359.528046 
	C362.786560,362.916138 364.947601,365.060547 367.992157,366.521179 
	C372.172699,368.526855 376.270111,370.705627 380.448395,372.716187 
	C385.375610,375.087067 387.621948,373.598236 387.858124,367.054382 
M428.000641,136.172974 
	C427.839600,134.230255 427.678558,132.287521 427.517487,130.344803 
	C427.004639,130.326462 426.491791,130.308136 425.978973,130.289795 
	C425.582214,131.925278 425.239258,133.576096 424.778076,135.193192 
	C423.645447,139.164551 419.166534,142.509415 415.944275,141.846191 
	C411.699921,140.972626 407.298523,134.370865 408.022430,129.964066 
	C408.646149,126.167389 412.489197,123.935524 417.071869,124.459396 
	C418.170685,124.585007 419.359467,123.923271 420.506866,123.623665 
	C419.677094,122.597023 419.056976,121.100815 417.982971,120.621315 
	C411.856720,117.886322 403.817505,124.233101 403.999695,131.517151 
	C404.173431,138.463394 409.393188,144.838806 415.650665,145.747559 
	C420.150574,146.401093 426.279388,142.056152 428.000641,136.172974 
M361.907288,378.471619 
	C356.184906,382.283875 355.059692,387.542877 359.280334,391.889526 
	C364.608490,388.064880 370.131409,384.404236 375.237946,380.233734 
	C376.614166,379.109741 376.726257,376.437927 377.418610,374.476624 
	C375.062408,373.930939 372.431305,372.460999 370.415710,373.060516 
	C367.535583,373.917145 365.105957,376.288391 361.907288,378.471619 
M64.499634,392.282227 
	C64.229652,395.708832 63.959671,399.135468 63.689693,402.562073 
	C70.478127,399.423340 75.735962,396.013123 80.874344,392.431549 
	C83.526970,390.582581 85.417801,388.036621 83.133179,384.860809 
	C80.844177,381.678864 77.794434,382.771484 75.172440,384.547455 
	C71.744835,386.869080 68.495148,389.453400 64.499634,392.282227 
M101.656090,166.175766 
	C105.229660,163.490677 109.091599,161.095093 112.227951,157.971069 
	C113.402260,156.801392 112.887398,153.935852 113.142708,151.843536 
	C110.889244,151.680893 108.328979,150.766235 106.453934,151.531158 
	C103.613724,152.689865 101.283043,155.065338 98.677711,156.838348 
	C92.078758,161.329147 91.898026,161.904297 95.318062,170.369812 
	C97.295433,169.056747 99.166481,167.814285 101.656090,166.175766 
M128.869064,135.731247 
	C124.770203,129.907440 120.761368,124.015884 116.480919,118.328758 
	C115.794273,117.416458 113.893723,117.417809 112.554344,116.996796 
	C112.543938,118.388359 111.978729,120.143074 112.613274,121.112473 
	C116.692635,127.344513 120.930000,133.482681 125.382805,139.452286 
	C126.228920,140.586624 128.269775,140.829803 129.759399,141.484146 
	C129.572220,139.784195 129.385040,138.084229 128.869064,135.731247 
M87.547630,360.932526 
	C90.367813,364.789581 93.068939,368.744629 96.100716,372.427521 
	C96.770607,373.241241 98.610809,373.091583 99.912132,373.385529 
	C99.831146,372.062164 100.166695,370.506073 99.583878,369.463135 
	C98.306419,367.177155 96.547684,365.162628 95.014198,363.016724 
	C92.139336,358.993744 89.421501,354.846283 86.326782,351.001343 
	C85.542747,350.027191 83.584778,349.997894 82.166245,349.534454 
	C82.288666,350.991791 81.988907,352.675598 82.623360,353.858276 
	C83.858711,356.160980 85.617546,358.182922 87.547630,360.932526 
M201.159134,68.053474 
	C204.935913,73.137314 208.712677,78.221161 212.489441,83.305000 
	C213.203049,83.034866 213.916672,82.764732 214.630280,82.494591 
	C214.331116,80.720192 214.501617,78.665367 213.641968,77.225624 
	C211.350662,73.388237 208.691864,69.758705 206.005173,66.177055 
	C205.323700,65.268570 203.992493,64.847481 202.959839,64.202431 
	C202.321838,65.239754 201.683838,66.277084 201.159134,68.053474 
M478.680817,302.357849 
	C475.441101,297.271820 472.301636,292.115662 468.849060,287.178467 
	C468.354584,286.471405 466.346985,286.822449 465.039642,286.683807 
	C465.065796,287.863403 464.647797,289.330811 465.193817,290.173615 
	C467.782196,294.168915 470.445862,298.152557 473.510834,301.778473 
	C474.379395,302.806000 476.692261,302.612701 478.680817,302.357849 
M401.901123,156.475067 
	C398.110596,150.735031 394.390228,144.945679 390.438446,139.318893 
	C389.958405,138.635406 388.232056,138.827240 387.083374,138.613388 
	C387.079987,139.605347 386.682861,140.854401 387.135925,141.548325 
	C390.552002,146.780365 394.085205,151.938675 397.695435,157.039612 
	C398.846405,158.665756 400.346161,159.860855 401.901123,156.475067 
M61.741764,371.071594 
	C63.997410,370.961090 66.440239,371.308167 68.411255,370.501862 
	C69.140930,370.203339 69.519539,366.569550 68.700600,365.576874 
	C67.627960,364.276642 64.766342,363.065521 63.464760,363.632111 
	C60.821465,364.782684 59.219265,367.303925 61.741764,371.071594 
M362.515869,354.247864 
	C360.546692,353.814209 358.153809,352.508942 356.731567,353.200348 
	C355.399109,353.848083 354.301544,356.761200 354.611938,358.389252 
	C354.824280,359.503082 358.351776,361.237183 359.126617,360.734711 
	C360.819183,359.637054 361.706360,357.293488 362.903320,355.446442 
	C362.970276,355.343140 362.863129,355.127075 362.515869,354.247864 
z"/>
<path fill="#E9E9E9" opacity="1.000000" stroke="none" 
	d="
M558.000000,3.499995 
	C553.387329,5.335902 548.835205,7.418597 544.145020,7.799239 
	C539.383545,8.185660 535.002869,5.899332 532.029175,1.352622 
	C540.000000,1.000000 548.000793,0.951824 555.998535,1.086721 
	C556.676270,1.098151 557.333374,2.333321 558.000000,3.499995 
z"/>
<path fill="#1B1B1B" opacity="1.000000" stroke="none" 
	d="
M327.758331,289.530853 
	C316.533936,289.573822 305.309509,289.616791 293.541840,289.258118 
	C291.045715,284.284851 289.059631,279.727112 287.145203,275.139465 
	C271.304596,237.180084 255.476425,199.215500 239.646271,161.251755 
	C230.454834,139.208939 221.266663,117.164772 212.077026,95.121201 
	C223.401428,95.073502 234.725845,95.025795 246.572220,95.417923 
	C263.676453,135.628937 280.267365,175.396500 296.837738,215.172623 
	C307.160645,239.952026 317.452545,264.744324 327.758331,289.530853 
z"/>
<path fill="#1B1B1B" opacity="1.000000" stroke="none" 
	d="
M332.100861,199.007782 
	C332.022369,225.757660 331.943878,252.507538 331.601440,279.416168 
	C324.481476,263.239655 317.574951,246.925323 310.784393,230.562866 
	C304.696167,215.892792 298.735535,201.169769 292.718597,186.470093 
	C292.718597,156.196945 292.718597,125.923798 292.718597,95.290611 
	C305.775024,95.290611 318.623566,95.290611 331.948914,95.290611 
	C331.948914,121.597244 331.948914,147.832153 331.941101,174.926437 
	C332.003693,176.860840 332.074097,177.935867 332.144470,179.010880 
	C332.084778,183.365906 332.025085,187.720917 331.960632,192.955444 
	C332.004181,195.559219 332.052521,197.283493 332.100861,199.007782 
z"/>
<path fill="#1B1B1B" opacity="1.000000" stroke="none" 
	d="
M246.257935,198.925705 
	C246.257950,228.896835 246.257950,258.867981 246.257950,289.253510 
	C233.453094,289.253510 220.768951,289.253510 207.520142,289.253510 
	C207.520142,228.354584 207.520142,167.574112 207.920868,106.439758 
	C209.112000,107.527092 210.039078,108.910904 210.672272,110.418175 
	C220.136765,132.947937 229.658112,155.454742 238.939301,178.060043 
	C241.734924,184.869080 243.837753,191.962540 246.257935,198.925705 
z"/>
<path fill="#903F8D" opacity="1.000000" stroke="none" 
	d="
M246.624466,198.900360 
	C243.837753,191.962540 241.734924,184.869080 238.939301,178.060043 
	C229.658112,155.454742 220.136765,132.947937 210.672272,110.418175 
	C210.039078,108.910904 209.112000,107.527092 207.959564,105.962502 
	C206.763016,102.419052 205.928513,98.998970 204.933411,94.920738 
	C207.122116,94.920738 209.162262,94.920738 211.639725,95.020973 
	C221.266663,117.164772 230.454834,139.208939 239.646271,161.251755 
	C255.476425,199.215500 271.304596,237.180084 287.145203,275.139465 
	C289.059631,279.727112 291.045715,284.284851 293.089600,289.192749 
	C285.737946,290.156555 285.835449,290.116058 282.894562,283.037506 
	C271.599701,255.851456 260.243927,228.690720 248.870514,201.537445 
	C248.460754,200.559174 247.627090,199.758469 246.624466,198.900360 
z"/>
<path fill="#E5257A" opacity="1.000000" stroke="none" 
	d="
M292.534973,186.141235 
	C298.735535,201.169769 304.696167,215.892792 310.784393,230.562866 
	C317.574951,246.925323 324.481476,263.239655 331.514160,279.890808 
	C332.832153,283.173676 333.973480,286.140686 335.364349,289.756439 
	C332.580688,289.756439 330.509216,289.756439 328.098022,289.643646 
	C317.452545,264.744324 307.160645,239.952026 296.837738,215.172623 
	C280.267365,175.396500 263.676453,135.628937 247.032928,95.499023 
	C252.125549,93.944084 254.617798,95.734001 256.727264,100.992371 
	C267.529694,127.920052 278.931641,154.607285 290.145569,181.369568 
	C290.783234,182.891403 291.611664,184.333298 292.534973,186.141235 
z"/>
<path fill="#F1F1F1" opacity="1.000000" stroke="none" 
	d="
M164.996002,102.995766 
	C166.346420,105.025505 167.686386,107.062279 169.049057,109.083755 
	C174.404678,117.028679 171.931335,124.584534 162.817413,127.433762 
	C161.483139,127.850883 159.708328,126.858803 158.137344,126.518761 
	C159.103104,125.386963 159.860779,123.648003 161.072144,123.232880 
	C165.355637,121.764969 168.177307,119.732033 166.632462,114.900497 
	C163.795898,116.951622 161.256042,119.991394 158.192505,120.671173 
	C155.013718,121.376518 151.327957,119.797066 147.599442,119.172554 
	C147.840073,122.860382 149.473999,127.858696 144.829041,130.919739 
	C142.167709,132.673569 139.042130,134.600891 136.033844,134.764542 
	C130.068466,135.089050 124.764458,128.202240 125.474213,122.140144 
	C126.397179,114.257034 132.109756,111.641212 143.838776,113.523819 
	C145.056473,109.664757 145.391113,105.177391 147.700195,102.244507 
	C150.036865,99.276543 154.327515,97.846947 158.595062,95.233482 
	C160.303040,97.429802 162.351593,100.064056 164.700073,102.849152 
	C165.000000,103.000000 164.996002,102.995766 164.996002,102.995766 
M130.802628,123.728951 
	C131.054260,124.511185 131.223175,125.332619 131.571976,126.068810 
	C133.024490,129.134491 135.359497,130.641876 138.754288,129.553680 
	C142.303146,128.416092 143.689346,125.803650 142.856628,122.216934 
	C141.933273,118.239868 139.347916,116.245682 135.243347,117.061394 
	C132.164169,117.673317 129.559311,119.042213 130.802628,123.728951 
M150.000275,110.322227 
	C150.542435,115.297333 153.842285,116.457336 158.093124,115.933792 
	C161.800720,115.477165 162.910736,112.355865 161.789368,109.749954 
	C160.662766,107.131828 158.166061,103.909767 155.711853,103.335114 
	C151.996185,102.465080 149.931915,105.564796 150.000275,110.322227 
z"/>
<path fill="#F1F1F1" opacity="1.000000" stroke="none" 
	d="
M165.001984,103.002014 
	C164.947174,102.008751 165.013062,100.988159 164.813782,100.022293 
	C163.465851,93.489388 164.748840,89.468185 169.216888,86.458633 
	C173.034821,83.886986 178.457809,84.551071 183.467392,88.299362 
	C183.642014,87.856110 183.985764,87.429314 183.926559,87.068680 
	C182.426056,77.929184 183.413361,76.170113 191.810974,72.102547 
	C193.305557,71.378616 194.431625,69.893875 196.523972,68.064278 
	C198.200821,70.202385 200.177200,72.636986 202.054581,75.145653 
	C203.346832,76.872421 204.588043,78.650108 205.697662,80.497765 
	C207.297379,83.161514 210.633591,86.249374 204.365845,87.519142 
	C203.882507,87.617050 203.505890,88.457695 203.164200,89.005806 
	C199.367371,95.096504 193.393036,96.036324 187.862946,91.413574 
	C187.504456,91.113899 187.042908,90.937508 186.487488,90.623619 
	C186.308044,91.195389 185.996140,91.654282 186.066620,92.044022 
	C187.369186,99.246872 186.097519,102.975510 181.309174,105.822830 
	C177.370621,108.164848 171.779465,107.312256 167.060959,103.682396 
	C166.680328,103.389587 166.165924,103.270676 165.354843,103.033363 
	C164.996002,102.995766 165.000000,103.000000 165.001984,103.002014 
M181.984970,96.539635 
	C180.119614,90.522316 175.092316,87.783859 171.576736,91.249397 
	C170.025208,92.778854 168.808945,96.310738 169.536560,98.063301 
	C170.418350,100.187263 173.312531,102.206230 175.703720,102.807137 
	C179.590698,103.783951 181.090134,100.585701 181.984970,96.539635 
M197.856949,77.537621 
	C193.240875,75.377396 190.441849,76.010277 188.728210,79.601700 
	C187.232361,82.736687 189.186325,86.772263 192.956375,89.010933 
	C196.805435,91.296509 199.223328,88.372002 199.970245,86.024475 
	C200.688248,83.767769 199.024033,80.753128 197.856949,77.537621 
z"/>
<path fill="#282828" opacity="1.000000" stroke="none" 
	d="
M308.211365,326.607056 
	C308.213043,331.852783 308.213043,336.657562 308.213043,341.656494 
	C306.702515,341.656494 305.598633,341.656494 304.036285,341.656494 
	C304.036285,336.368439 304.107697,331.231354 304.016083,326.097229 
	C303.925903,321.042908 301.572449,318.190796 297.657684,318.117401 
	C293.425934,318.038055 290.510468,320.848267 290.277618,325.819519 
	C290.036835,330.959991 290.224060,336.120483 290.224060,341.303955 
	C287.391815,342.411011 285.917114,342.087128 286.008484,338.822632 
	C286.129639,334.494476 286.054321,330.159943 286.017426,325.828522 
	C285.982117,321.684021 284.327454,318.645081 279.882080,318.163177 
	C275.865662,317.727783 272.671997,320.410095 272.323395,325.057190 
	C271.915771,330.490387 272.228119,335.977600 272.228119,341.318848 
	C268.750214,342.580536 267.960693,341.323822 268.001495,338.496948 
	C268.112030,330.835480 268.039398,323.171387 268.039398,314.358856 
	C269.943237,315.154205 271.361511,315.746674 273.603363,316.683258 
	C279.546234,312.917542 283.310089,313.225067 288.983398,319.104980 
	C292.660126,315.029785 297.040497,312.841522 302.506134,315.395264 
	C307.050598,317.518585 308.206665,321.569061 308.211365,326.607056 
z"/>
<path fill="#F1F1F1" opacity="1.000000" stroke="none" 
	d="
M79.998314,144.076584 
	C79.663704,139.157990 79.366295,134.697830 78.984726,130.244858 
	C78.711105,127.051620 80.691628,125.073418 83.259735,125.385155 
	C84.971619,125.592964 87.512085,128.021713 87.761086,129.735550 
	C89.162781,139.382767 89.999863,149.112762 90.991241,158.818451 
	C91.377777,162.602783 92.115158,166.436035 91.793953,170.169693 
	C91.648041,171.865768 89.315498,173.373734 87.974854,174.967026 
	C86.316811,173.526443 83.475426,172.281616 83.199310,170.612442 
	C81.771484,161.980743 80.999908,153.240494 79.998314,144.076584 
z"/>
<path fill="#F1F1F1" opacity="1.000000" stroke="none" 
	d="
M354.128967,378.712921 
	C354.753876,383.245758 355.699280,387.335571 355.653442,391.414215 
	C355.636261,392.946899 353.598083,395.161011 351.981232,395.800812 
	C349.752167,396.682800 347.244049,395.975677 346.819855,392.812744 
	C345.854492,385.614807 344.919220,378.412689 344.007416,371.207764 
	C343.364838,366.130188 342.753235,361.048248 342.188049,355.961548 
	C342.023224,354.478363 341.563690,352.734528 342.132782,351.533569 
	C342.940277,349.829651 344.608398,347.298492 345.848328,347.332367 
	C347.582947,347.379822 350.328003,349.168945 350.761658,350.733704 
	C351.985382,355.149414 352.350922,359.819519 352.865112,364.410645 
	C353.380859,369.015564 353.668030,373.646118 354.128967,378.712921 
z"/>
<path fill="#F1F1F1" opacity="1.000000" stroke="none" 
	d="
M49.997299,377.076019 
	C49.662552,371.832214 49.036354,367.041840 49.172386,362.273193 
	C49.213791,360.821594 51.692238,358.080444 52.470257,358.274353 
	C54.473103,358.773468 57.527088,360.395447 57.733810,361.901825 
	C59.169315,372.362549 59.970901,382.909637 61.012337,393.425415 
	C61.272346,396.050812 62.228436,398.754730 61.821365,401.252502 
	C61.490677,403.281647 59.989017,406.073486 58.311649,406.717865 
	C55.416256,407.830200 53.323418,405.862000 52.941853,402.598999 
	C51.964935,394.244781 50.980274,385.891449 49.997299,377.076019 
z"/>
<path fill="#1F1F1F" opacity="1.000000" stroke="none" 
	d="
M347.083740,318.762177 
	C340.275146,317.762054 337.294769,320.132446 337.057770,326.504944 
	C336.903046,330.663605 337.194794,334.845154 336.894592,338.988037 
	C336.811646,340.133148 335.324677,341.176514 334.481903,342.266541 
	C333.972992,341.998749 333.464050,341.730988 332.955139,341.463196 
	C332.955139,336.332977 333.047211,331.200653 332.928833,326.073181 
	C332.813690,321.085083 330.409119,318.229034 326.516602,318.105621 
	C322.179077,317.968079 319.169830,321.134003 319.040039,326.266022 
	C318.914185,331.243439 319.012756,336.226562 319.012756,341.401215 
	C316.282532,342.295410 314.897308,342.027191 314.948944,338.802368 
	C315.074097,330.988922 314.989624,323.172150 314.989624,313.984253 
	C317.127655,315.235046 318.490234,316.032166 320.202484,317.033875 
	C326.047577,312.911316 329.803680,313.241272 335.686005,319.005646 
	C337.574463,317.677368 339.286926,315.954956 341.357422,315.113739 
	C347.529236,312.606262 354.206390,316.653412 354.843903,323.486877 
	C355.337158,328.774109 355.171326,334.141510 354.956604,339.459503 
	C354.916016,340.464996 353.269257,341.405670 352.363617,342.376251 
	C351.905151,342.092987 351.446716,341.809692 350.988281,341.526428 
	C350.988281,336.568481 351.385101,331.565552 350.829926,326.670593 
	C350.528015,324.008820 348.608368,321.530548 347.083740,318.762177 
z"/>
<path fill="#F0F0F0" opacity="1.000000" stroke="none" 
	d="
M426.765167,315.117981 
	C427.293732,314.500488 427.920563,313.942413 428.335815,313.256348 
	C433.004974,305.542145 436.805695,304.509735 446.629242,308.670227 
	C446.761108,307.125397 446.963287,305.734528 446.984772,304.340851 
	C447.094757,297.194489 447.868927,296.159210 454.920502,293.965668 
	C455.384583,293.821289 456.107697,293.812653 456.272552,293.505768 
	C460.236572,286.126495 462.096710,292.149078 464.208710,294.843750 
	C466.548737,297.829498 468.667603,301.002991 470.683289,304.219696 
	C471.287384,305.183716 471.797119,307.318878 471.375946,307.639984 
	C467.489441,310.603394 463.389160,313.286438 458.599060,316.085632 
	C453.266449,313.635803 448.641907,314.015808 443.988953,315.526306 
	C443.632263,311.792419 441.410828,311.249695 438.487549,310.910889 
	C433.528503,310.336090 433.351715,315.267639 430.281219,317.094635 
	C428.902283,316.398834 427.833740,315.758423 426.765167,315.117981 
M454.488953,309.000427 
	C456.562653,311.243927 458.882568,311.845551 461.492310,309.948914 
	C464.554962,307.723114 464.805756,304.235626 462.252808,300.832794 
	C459.848083,297.627594 456.613586,296.762299 453.712982,299.346313 
	C450.733582,302.000580 451.155365,305.464966 454.488953,309.000427 
z"/>
<path fill="#2A2A2A" opacity="1.000000" stroke="none" 
	d="
M375.988007,342.147369 
	C366.544861,341.988617 360.981140,337.768005 360.221191,329.842987 
	C359.697083,324.377594 361.337830,319.547516 366.159546,316.474213 
	C370.687683,313.588043 375.659393,313.406555 380.308594,316.051422 
	C385.389130,318.941681 387.298645,323.672729 386.793304,329.966034 
	C383.055084,329.966034 379.442078,329.966034 375.829041,329.966034 
	C372.347809,329.966034 368.866577,329.966034 365.385376,329.966034 
	C365.001343,330.312561 364.617310,330.659088 364.233307,331.005615 
	C366.015625,333.163422 367.465729,336.602844 369.659973,337.171692 
	C372.771698,337.978363 376.488007,336.920654 379.835266,336.167572 
	C381.705292,335.746887 383.351593,334.331421 385.098694,333.364227 
	C385.449036,333.850403 385.799347,334.336578 386.149658,334.822784 
	C384.515411,336.580780 382.881165,338.338806 380.676086,340.436707 
	C378.732849,341.233551 377.360443,341.690460 375.988007,342.147369 
M367.128357,320.649261 
	C366.301025,322.269196 365.473694,323.889130 364.504578,325.786682 
	C370.886688,325.786682 376.441437,325.786682 382.044830,325.786682 
	C380.557800,318.265442 375.025818,316.172363 367.128357,320.649261 
z"/>
<path fill="#2A2A2A" opacity="1.000000" stroke="none" 
	d="
M185.006027,314.930511 
	C197.070572,313.126221 203.293640,318.105713 203.079330,329.966034 
	C199.514618,329.966034 195.914444,329.966034 192.314255,329.966034 
	C188.674393,329.966034 185.034531,329.966034 181.394653,329.966034 
	C181.044617,330.355316 180.694580,330.744598 180.344528,331.133911 
	C182.453979,333.345093 184.263885,336.865936 186.749039,337.434326 
	C189.821625,338.137024 193.485703,336.507782 196.832794,335.647186 
	C198.480103,335.223663 199.989120,334.262360 202.523819,333.104462 
	C199.400940,340.256195 194.593277,342.890930 188.017807,342.060699 
	C182.380859,341.348969 177.351059,336.658936 176.956757,330.928314 
	C176.736008,327.720215 177.692337,324.431152 178.084259,320.773376 
	C178.050201,320.368164 178.110458,320.433136 178.110458,320.433136 
	C179.941269,318.898193 181.772079,317.363251 184.059753,315.617310 
	C184.747101,315.316986 184.910233,315.158356 185.006027,314.930511 
M182.446091,322.121704 
	C181.985443,323.310577 181.524796,324.499451 181.006393,325.837402 
	C187.132355,325.837402 192.870651,325.837402 198.664474,325.837402 
	C196.374207,317.380585 189.696945,315.620605 182.446091,322.121704 
z"/>
<path fill="#282828" opacity="1.000000" stroke="none" 
	d="
M443.994141,315.907623 
	C448.641907,314.015808 453.266449,313.635803 458.208405,316.152405 
	C462.370026,319.746033 464.777527,323.885925 464.006256,329.754822 
	C456.827393,329.754822 449.605927,329.754822 442.384460,329.754822 
	C442.023346,330.227600 441.662231,330.700409 441.301147,331.173187 
	C443.404816,333.365967 445.140717,336.312103 447.703949,337.563568 
	C451.013947,339.179535 454.730408,338.697845 457.803223,335.760529 
	C458.999481,334.617065 460.938934,334.251129 463.489899,333.103668 
	C460.232452,340.092133 456.216827,342.580536 449.904877,342.073212 
	C442.351929,341.466095 438.926514,336.335419 436.946564,328.991425 
	C437.497559,323.088837 439.924927,319.027802 443.994141,315.907623 
M443.407593,322.065186 
	C442.962097,323.254700 442.516602,324.444214 441.982880,325.869324 
	C448.119598,325.869324 453.843567,325.869324 459.616791,325.869324 
	C457.380707,317.493103 450.716553,315.696564 443.407593,322.065186 
z"/>
<path fill="#E9E9E9" opacity="1.000000" stroke="none" 
	d="
M163.890823,327.013855 
	C161.587799,326.186371 159.284775,325.358917 157.597641,324.752716 
	C156.460449,328.329834 155.286331,332.023071 153.663147,335.868530 
	C151.151169,333.280487 149.088272,330.540253 147.030411,327.806671 
	C150.191299,323.550812 153.186798,319.517639 156.402313,315.188202 
	C154.884827,314.926270 153.929459,314.761353 152.974106,314.596436 
	C152.888245,309.757538 155.645370,306.972321 159.781845,305.195129 
	C160.536331,304.870972 161.408966,304.742096 162.069656,304.292023 
	C167.394897,300.663940 167.549927,300.545563 171.054184,306.295441 
	C173.650314,310.555237 175.741852,315.122528 178.084320,319.992981 
	C178.110458,320.433136 178.050201,320.368164 178.076508,320.409058 
	C176.339722,321.074188 174.435272,321.458954 172.854507,322.392029 
	C171.366898,323.270111 170.220657,324.726471 168.505890,325.539581 
	C168.087540,323.036499 168.087540,320.922302 168.087540,319.343292 
	C170.481064,318.296509 172.360352,317.474640 174.239639,316.652740 
	C172.301376,315.713837 170.363113,314.774933 167.945221,313.603699 
	C167.945221,311.206116 167.945221,308.271118 167.945221,305.537323 
	C163.649643,303.810303 164.225693,306.874451 163.532104,309.008972 
	C160.424637,309.985687 157.206467,310.630127 158.865875,315.301208 
	C160.235214,316.945740 161.693756,318.145081 163.890823,319.951691 
	C163.890823,321.481232 163.890823,324.247528 163.890823,327.013855 
z"/>
<path fill="#2A2A2A" opacity="1.000000" stroke="none" 
	d="
M114.986900,342.151306 
	C107.032570,338.601440 103.524300,333.519531 104.382408,326.790131 
	C105.367386,319.065826 111.134987,313.922516 118.429070,314.263916 
	C126.193893,314.627350 130.805130,320.026733 130.579163,329.497650 
	C128.392273,329.996521 126.690567,330.056488 124.527260,330.042664 
	C119.117661,329.968842 114.169662,329.968842 108.750404,329.968842 
	C109.575859,334.493469 111.744324,337.111389 116.398102,338.016846 
	C119.474419,337.236664 122.145752,336.334839 124.809433,335.411011 
	C126.389786,334.862885 127.958061,334.279968 130.209808,333.468292 
	C129.513535,335.461090 129.246231,336.226074 128.684784,337.159607 
	C125.264618,338.966461 122.138603,340.604828 118.612778,342.186218 
	C117.137619,342.136597 116.062263,342.143951 114.986900,342.151306 
M109.440651,323.404663 
	C109.848251,324.284393 110.230255,325.914612 110.667351,325.929504 
	C115.869522,326.106964 121.079903,326.043884 126.636978,326.043884 
	C125.991951,321.475311 123.473244,319.273895 119.955688,318.404907 
	C115.685730,317.350067 112.211403,318.893280 109.440651,323.404663 
z"/>
<path fill="#F1F1F1" opacity="1.000000" stroke="none" 
	d="
M468.752625,89.265945 
	C471.487518,93.054245 474.134155,96.479691 476.382965,100.148949 
	C477.274414,101.603523 477.282562,103.599449 477.692841,105.348892 
	C477.053894,105.607750 476.414978,105.866608 475.776031,106.125465 
	C472.894440,102.152344 470.012848,98.179222 467.131287,94.206108 
	C466.852539,94.360329 466.573822,94.514549 466.295074,94.668777 
	C467.186066,98.484688 468.338562,102.266052 468.849243,106.132202 
	C469.078186,107.865524 468.021606,109.768631 467.548401,111.594696 
	C465.887909,111.080467 464.109222,110.793388 462.592072,110.003716 
	C459.626740,108.460205 456.807526,106.635994 453.195068,105.882263 
	C454.985535,108.573456 456.883942,111.201950 458.504364,113.991890 
	C459.029083,114.895294 458.824951,116.222015 458.954193,117.355103 
	C457.873535,117.052895 456.328644,117.103912 455.786804,116.391754 
	C451.973358,111.379829 448.264679,106.277840 444.800598,101.021362 
	C444.266998,100.211670 444.821198,98.211235 445.531097,97.246040 
	C445.914215,96.725113 447.915283,96.837219 448.804352,97.339722 
	C453.136505,99.788277 457.323334,102.492500 461.603851,105.035141 
	C462.360840,105.484802 463.318207,105.597160 464.312775,105.905487 
	C464.963562,98.443718 458.760223,91.543808 463.546844,83.120377 
	C465.645752,85.609711 467.075378,87.305260 468.752625,89.265945 
z"/>
<path fill="#373737" opacity="1.000000" stroke="none" 
	d="
M75.370422,334.835358 
	C75.370468,328.058136 75.370468,321.758759 75.370468,314.218445 
	C77.573952,315.175629 79.144402,315.857788 81.152321,316.730011 
	C89.506500,310.448120 99.887314,315.789032 99.286217,327.712616 
	C99.102310,331.360748 99.140808,335.030884 99.293564,338.681885 
	C99.420525,341.716553 98.257782,342.579041 95.061562,341.373596 
	C95.061562,336.528748 95.164558,331.564514 95.033165,326.606476 
	C94.896370,321.444733 92.078331,318.248352 87.846191,318.116913 
	C83.448372,317.980316 80.028473,321.241486 79.754402,326.395477 
	C79.491074,331.347260 79.697487,336.324036 79.697487,341.220795 
	C75.374985,341.829895 75.374985,341.829895 75.370422,334.835358 
z"/>
<path fill="#2C2C2C" opacity="1.000000" stroke="none" 
	d="
M261.951416,333.606354 
	C257.963043,340.860077 252.124390,343.611664 245.429062,341.728882 
	C239.461578,340.050812 235.534164,333.932892 236.029953,327.087463 
	C236.597641,319.249237 242.762009,313.705566 250.286652,314.266296 
	C257.823212,314.827911 263.253601,321.099213 262.812988,328.835266 
	C262.729095,330.308075 262.311951,331.761932 261.951416,333.606354 
M243.115082,320.585754 
	C242.167618,322.649017 240.755936,324.627350 240.359955,326.791504 
	C239.184906,333.213623 243.929291,338.679474 249.960495,338.257050 
	C254.030457,337.971985 256.838684,335.886383 257.929565,332.002899 
	C259.148560,327.663239 258.946503,323.394745 255.135178,320.247437 
	C251.457703,317.210693 247.563980,317.573303 243.115082,320.585754 
z"/>
<path fill="#2C2C2C" opacity="1.000000" stroke="none" 
	d="
M217.649826,337.917145 
	C221.727859,338.661438 224.858307,338.087738 227.389969,334.898956 
	C228.306900,333.744049 230.186462,333.353424 232.340378,332.247711 
	C230.371078,339.409088 225.378738,342.599487 218.420197,342.092255 
	C212.467026,341.658295 207.487869,336.618958 206.856766,330.389038 
	C206.090942,322.829224 209.525314,316.848969 215.719360,314.956757 
	C222.549362,312.870270 228.712570,315.651703 232.674301,323.522583 
	C230.437775,322.873627 228.604919,322.873596 227.602295,321.961212 
	C222.553680,317.367035 216.756699,317.094116 213.055878,321.565155 
	C209.210037,326.211395 210.554169,333.485016 215.938538,337.117798 
	C216.350143,337.395477 216.807617,337.605164 217.649826,337.917145 
z"/>
<path fill="#2C2C2C" opacity="1.000000" stroke="none" 
	d="
M426.382568,315.087402 
	C427.833740,315.758423 428.902283,316.398834 430.410339,317.428406 
	C431.890137,319.376465 432.930450,320.935364 433.970795,322.494232 
	C433.570892,322.955933 433.170990,323.417633 432.771088,323.879333 
	C430.555756,322.364777 428.340454,320.850220 425.856873,319.112427 
	C418.422821,316.900574 413.530731,319.996246 412.628967,327.357666 
	C413.152191,335.743011 416.436707,338.614563 424.334686,337.890900 
	C427.463806,336.261200 430.238525,334.581940 433.013275,332.902710 
	C433.288910,333.375092 433.564545,333.847504 433.554779,334.803314 
	C431.802490,336.951019 430.335602,338.615265 428.868713,340.279541 
	C422.124207,343.308197 415.964264,343.061005 410.444946,336.993164 
	C410.059021,336.925476 410.271820,336.780701 410.271790,336.780701 
	C409.739655,332.651337 408.169006,328.329285 408.891846,324.432739 
	C410.390289,316.355438 416.564728,313.391113 426.382568,315.087402 
z"/>
<path fill="#F1F1F1" opacity="1.000000" stroke="none" 
	d="
M116.994423,348.986206 
	C117.208504,350.445953 117.344276,351.922302 117.650253,353.362518 
	C118.971008,359.579285 116.701714,363.689911 110.481468,366.235718 
	C105.337990,368.340820 99.396362,366.028809 96.522102,360.803802 
	C93.919342,356.072327 95.055008,350.755707 99.455093,347.072998 
	C104.714729,342.670990 107.407402,342.816895 115.872856,348.074890 
	C116.713600,348.413666 116.896385,348.669647 116.994423,348.986206 
M108.984932,361.855011 
	C110.005920,361.035004 111.853577,360.252167 111.892387,359.388062 
	C112.007385,356.827759 112.264900,353.485626 110.847488,351.867462 
	C109.443451,350.264465 105.681458,349.333771 103.676697,350.071930 
	C101.940422,350.711182 100.000237,354.292450 100.304565,356.235962 
	C100.901489,360.048096 103.825607,362.440552 108.984932,361.855011 
z"/>
<path fill="#F1F1F1" opacity="1.000000" stroke="none" 
	d="
M448.724121,113.653778 
	C451.530762,122.782440 446.849915,130.377029 438.417877,130.992783 
	C433.037048,131.385727 426.921204,126.538483 425.366028,120.648239 
	C423.804047,114.731956 426.675903,108.533775 432.110229,106.092651 
	C437.545227,103.651245 443.108002,105.419678 446.905670,110.807404 
	C447.479858,111.621994 448.012146,112.466141 448.724121,113.653778 
M445.849243,117.952789 
	C444.819733,116.064789 444.039154,113.975853 442.710297,112.329460 
	C439.681580,108.577072 435.741699,108.074036 432.128326,110.494110 
	C428.390045,112.997856 427.875305,116.985359 429.499451,120.181259 
	C431.257233,123.640175 433.870880,127.646767 438.966919,126.929413 
	C443.554321,126.283661 445.964203,123.452194 445.849243,117.952789 
z"/>
<path fill="#282828" opacity="1.000000" stroke="none" 
	d="
M152.622162,314.708130 
	C153.929459,314.761353 154.884827,314.926270 156.402313,315.188202 
	C153.186798,319.517639 150.191299,323.550812 147.030411,327.806671 
	C149.088272,330.540253 151.151169,333.280487 153.496445,336.220978 
	C154.817459,338.046112 155.856110,339.671021 156.894745,341.295929 
	C156.548035,341.732605 156.201309,342.169312 155.854599,342.605988 
	C153.875473,341.249115 151.896347,339.892273 149.557617,337.978729 
	C147.750824,335.353241 146.303650,333.284393 144.570389,330.806580 
	C142.532013,333.914368 140.855606,336.470306 139.179214,339.026215 
	C138.794098,339.511322 138.408966,339.996429 137.637451,340.922058 
	C135.832123,341.581085 134.413193,341.799622 132.771759,341.773651 
	C132.507355,341.312775 132.465485,341.096405 132.660400,340.612793 
	C135.964539,336.236816 139.031891,332.128113 142.485916,327.501404 
	C140.302185,325.226440 138.194061,323.030243 136.085922,320.834045 
	C135.167618,318.982605 134.249329,317.131165 133.331039,315.279694 
	C133.498520,314.900604 133.666000,314.521515 133.833466,314.142426 
	C135.797684,315.251251 137.761887,316.360046 140.022583,318.053284 
	C141.706299,320.579742 143.093521,322.521759 144.831055,324.954193 
	C146.183685,322.632599 147.241577,320.816895 148.299469,319.001160 
	C149.623062,317.607361 150.946640,316.213593 152.622162,314.708130 
z"/>
<path fill="#F1F1F1" opacity="1.000000" stroke="none" 
	d="
M369.008972,164.018799 
	C372.389648,168.897964 374.690948,173.541214 371.014069,178.968643 
	C368.177612,183.155502 364.310150,185.340576 359.221191,184.958572 
	C355.232513,184.659149 348.888489,178.638123 348.079224,174.596298 
	C346.919525,168.804230 349.596100,163.003723 354.556488,160.303467 
	C358.905243,157.936188 365.884552,159.379593 369.008972,164.018799 
M353.999542,177.447250 
	C356.133514,178.627350 358.149139,180.406586 360.427338,180.856613 
	C364.535553,181.668091 368.699951,178.117065 368.944641,174.278564 
	C369.234222,169.736099 364.750092,163.754700 360.546478,163.076233 
	C356.904510,162.488403 351.369568,166.200165 351.338806,169.860947 
	C351.319214,172.189285 352.739502,174.529755 353.999542,177.447250 
z"/>
<path fill="#F0F0F0" opacity="1.000000" stroke="none" 
	d="
M396.168060,332.986359 
	C400.617676,334.278778 405.067291,335.571198 409.894348,336.822144 
	C410.271820,336.780701 410.059021,336.925476 410.145508,336.829010 
	C410.484955,338.998169 410.783905,341.259827 410.981689,343.530243 
	C411.457520,348.991516 409.322174,352.926697 404.607605,355.157440 
	C400.356659,357.168762 396.420319,355.911987 393.022308,353.302338 
	C388.914734,350.147797 388.272400,345.616241 389.305389,340.808014 
	C389.445007,340.157928 390.389221,339.680695 391.417816,339.417389 
	C392.585632,340.500427 393.296509,341.289520 394.004028,342.480743 
	C394.015656,343.709686 393.871765,344.577789 394.073761,345.356049 
	C394.857971,348.377350 396.125763,351.500671 399.841827,350.848816 
	C402.277161,350.421600 406.018524,348.831635 406.363342,347.176605 
	C406.842651,344.876404 405.329376,341.300049 403.454834,339.646118 
	C401.987183,338.351135 398.674805,339.146912 396.112244,338.587402 
	C396.084320,336.436157 396.126190,334.711243 396.168060,332.986359 
z"/>
<path fill="#F1F1F1" opacity="1.000000" stroke="none" 
	d="
M99.995560,138.004486 
	C103.424187,135.115738 106.856018,134.805969 110.790955,137.313553 
	C114.683289,139.793991 119.015915,141.588760 122.874527,144.113556 
	C123.972763,144.832153 124.908493,147.379333 124.456421,148.495834 
	C123.861816,149.964340 121.280075,152.119370 120.488747,151.782227 
	C113.879227,148.966415 107.438530,145.733017 101.085022,142.365036 
	C100.307236,141.952744 100.344238,140.003433 100.001816,138.383209 
	C100.000000,138.000000 99.995560,138.004486 99.995560,138.004486 
z"/>
<path fill="#F1F1F1" opacity="1.000000" stroke="none" 
	d="
M388.989014,154.997528 
	C391.854279,156.931107 394.394653,158.703430 396.935059,160.475754 
	C396.813629,161.097992 396.692230,161.720245 396.570801,162.342484 
	C394.772797,162.115265 392.967651,161.932526 391.178986,161.646927 
	C389.724548,161.414673 387.618225,160.308960 386.966492,160.892426 
	C384.577087,163.031677 382.361847,165.527969 380.723663,168.273285 
	C379.937378,169.590973 380.588196,171.766205 380.588196,173.553070 
	C379.927277,173.650909 379.266357,173.748734 378.605438,173.846558 
	C377.191620,169.108444 375.736603,164.382065 374.380524,159.627472 
	C373.654510,157.082001 372.919647,154.513733 372.543732,151.904617 
	C372.362518,150.646851 372.647095,148.415802 373.343933,148.126480 
	C374.791656,147.525436 376.984924,147.320923 378.284576,148.029831 
	C381.904877,150.004532 385.225311,152.528946 388.989014,154.997528 
M377.035400,154.096420 
	C377.545166,156.290375 378.054901,158.484314 378.899445,162.119232 
	C380.990845,160.058090 382.405243,158.664124 383.819672,157.270157 
	C381.570557,155.977982 379.321411,154.685806 377.035400,154.096420 
z"/>
<path fill="#F1F1F1" opacity="1.000000" stroke="none" 
	d="
M132.994263,342.018127 
	C134.413193,341.799622 135.832123,341.581085 137.575729,341.228149 
	C145.451904,347.464386 142.397812,356.587646 131.985397,360.360840 
	C131.007233,360.715302 129.525024,359.678894 128.276840,359.288239 
	C129.005829,358.101746 129.465729,356.298981 130.513123,355.841614 
	C133.975052,354.329865 137.497375,353.149536 136.894806,348.327820 
	C136.822067,347.745850 136.356110,347.213013 136.003571,346.522614 
	C130.495773,355.194550 124.732109,356.527100 117.301796,349.142548 
	C116.896385,348.669647 116.713600,348.413666 116.231567,348.112793 
	C115.675797,346.307068 115.334526,344.606750 114.990074,342.528870 
	C116.062263,342.143951 117.137619,342.136597 118.660858,342.528015 
	C120.532562,346.429504 122.332443,349.368927 126.861015,349.001984 
	C131.240356,348.647064 132.362015,345.583801 132.994263,342.018127 
z"/>
<path fill="#F1F1F1" opacity="1.000000" stroke="none" 
	d="
M80.054695,369.869049 
	C84.130226,371.752014 87.952484,373.323029 91.494102,375.377777 
	C93.738380,376.679840 96.514732,378.922974 94.274071,381.639923 
	C93.017036,383.164154 89.407585,384.069000 87.449310,383.432800 
	C82.647789,381.872894 78.151031,379.332886 73.607254,377.037567 
	C70.929970,375.685089 68.837112,373.957611 70.780121,370.418732 
	C72.624443,367.059601 75.261848,367.722137 78.018677,368.696075 
	C78.623367,368.909668 79.130547,369.399353 80.054695,369.869049 
z"/>
<path fill="#F1F1F1" opacity="1.000000" stroke="none" 
	d="
M387.915070,367.446716 
	C387.621948,373.598236 385.375610,375.087067 380.448395,372.716187 
	C376.270111,370.705627 372.172699,368.526855 367.992157,366.521179 
	C364.947601,365.060547 362.786560,362.916138 364.472168,359.528046 
	C366.156708,356.142090 368.940948,356.474152 372.015381,358.309082 
	C377.192139,361.398712 382.566742,364.156799 387.915070,367.446716 
z"/>
<path fill="#F1F1F1" opacity="1.000000" stroke="none" 
	d="
M427.990356,136.589874 
	C426.279388,142.056152 420.150574,146.401093 415.650665,145.747559 
	C409.393188,144.838806 404.173431,138.463394 403.999695,131.517151 
	C403.817505,124.233101 411.856720,117.886322 417.982971,120.621315 
	C419.056976,121.100815 419.677094,122.597023 420.506866,123.623657 
	C419.359467,123.923271 418.170685,124.585007 417.071869,124.459396 
	C412.489197,123.935524 408.646149,126.167389 408.022430,129.964066 
	C407.298523,134.370865 411.699921,140.972626 415.944275,141.846191 
	C419.166534,142.509415 423.645447,139.164551 424.778076,135.193192 
	C425.239258,133.576096 425.582214,131.925278 425.978973,130.289795 
	C426.491791,130.308136 427.004639,130.326462 427.517487,130.344803 
	C427.678558,132.287521 427.839600,134.230255 427.990356,136.589874 
z"/>
<path fill="#F1F1F1" opacity="1.000000" stroke="none" 
	d="
M362.195618,378.242188 
	C365.105957,376.288391 367.535583,373.917145 370.415710,373.060516 
	C372.431305,372.460999 375.062408,373.930939 377.418610,374.476624 
	C376.726257,376.437927 376.614166,379.109741 375.237946,380.233734 
	C370.131409,384.404236 364.608490,388.064880 359.280334,391.889526 
	C355.059692,387.542877 356.184906,382.283875 362.195618,378.242188 
z"/>
<path fill="#F1F1F1" opacity="1.000000" stroke="none" 
	d="
M64.834274,392.103455 
	C68.495148,389.453400 71.744835,386.869080 75.172440,384.547455 
	C77.794434,382.771484 80.844177,381.678864 83.133179,384.860809 
	C85.417801,388.036621 83.526970,390.582581 80.874344,392.431549 
	C75.735962,396.013123 70.478127,399.423340 63.689693,402.562073 
	C63.959671,399.135468 64.229652,395.708832 64.834274,392.103455 
z"/>
<path fill="#F1F1F1" opacity="1.000000" stroke="none" 
	d="
M101.346809,166.373779 
	C99.166481,167.814285 97.295433,169.056747 95.318062,170.369812 
	C91.898026,161.904297 92.078758,161.329147 98.677711,156.838348 
	C101.283043,155.065338 103.613724,152.689865 106.453934,151.531158 
	C108.328979,150.766235 110.889244,151.680893 113.142700,151.843536 
	C112.887398,153.935852 113.402260,156.801392 112.227951,157.971069 
	C109.091599,161.095093 105.229660,163.490677 101.346809,166.373779 
z"/>
<path fill="#1F1F1F" opacity="1.000000" stroke="none" 
	d="
M163.889267,309.014069 
	C164.225693,306.874451 163.649643,303.810303 167.945221,305.537323 
	C167.945221,308.271118 167.945221,311.206116 167.945221,313.603699 
	C170.363113,314.774933 172.301376,315.713837 174.239639,316.652740 
	C172.360352,317.474640 170.481064,318.296509 168.087540,319.343292 
	C168.087540,320.922302 168.087540,323.036499 168.172943,325.588135 
	C168.258331,331.093781 168.258331,336.162018 168.258331,341.356018 
	C165.305374,342.305054 163.931000,341.855682 164.031708,338.770813 
	C164.149506,335.162384 164.048203,331.546783 163.966400,327.474060 
	C163.890823,324.247528 163.890823,321.481232 163.890823,319.951691 
	C161.693756,318.145081 160.235214,316.945740 159.295441,315.283966 
	C161.095810,314.821503 162.377396,314.821503 163.889267,314.821503 
	C163.889267,312.584198 163.889267,310.799133 163.889267,309.014069 
z"/>
<path fill="#E9E9E9" opacity="1.000000" stroke="none" 
	d="
M135.939133,321.197601 
	C138.194061,323.030243 140.302185,325.226440 142.485916,327.501404 
	C139.031891,332.128113 135.964539,336.236816 132.493088,340.375153 
	C131.052307,339.266876 130.015625,338.128967 128.978943,336.991089 
	C129.246231,336.226074 129.513535,335.461090 130.209808,333.468292 
	C127.958061,334.279968 126.389786,334.862885 124.809433,335.411011 
	C122.145752,336.334839 119.474419,337.236664 116.445305,337.674225 
	C117.526680,335.742950 118.859367,334.149445 120.444756,332.868774 
	C121.809822,331.766113 123.463036,331.020142 124.988846,330.116455 
	C126.690567,330.056488 128.392273,329.996521 130.519562,329.913025 
	C131.866776,331.162354 132.788452,332.435181 133.558121,333.498108 
	C134.316772,329.444855 135.054550,325.502991 135.939133,321.197601 
z"/>
<path fill="#282828" opacity="1.000000" stroke="none" 
	d="
M394.007324,342.078613 
	C393.296509,341.289520 392.585632,340.500427 391.784485,339.346313 
	C391.694244,331.173462 391.694244,323.365723 391.694244,315.199982 
	C393.168976,315.037933 394.378113,314.905060 395.802856,314.748505 
	C395.946442,316.486115 396.066833,317.943115 396.145294,318.892822 
	C398.952942,317.271698 401.958099,315.536530 404.963287,313.801361 
	C405.387634,314.158661 405.811981,314.515961 406.236328,314.873260 
	C405.728485,316.099304 405.442657,318.223206 404.678436,318.412109 
	C397.252228,320.248077 395.857635,325.656433 396.105652,332.568207 
	C396.126190,334.711243 396.084320,336.436157 396.042358,338.949463 
	C395.363983,340.518097 394.685669,341.298340 394.007324,342.078613 
z"/>
<path fill="#F7F7F7" opacity="1.000000" stroke="none" 
	d="
M426.125122,319.335693 
	C428.340454,320.850220 430.555756,322.364777 432.771088,323.879333 
	C433.170990,323.417633 433.570892,322.955933 433.970795,322.494232 
	C432.930450,320.935364 431.890137,319.376465 430.720703,317.483826 
	C433.351715,315.267639 433.528503,310.336090 438.487549,310.910889 
	C441.410828,311.249695 443.632263,311.792419 443.988953,315.526306 
	C439.924927,319.027802 437.497559,323.088837 436.870911,328.614502 
	C435.102905,328.675415 433.402161,328.342163 431.019287,327.851166 
	C428.933105,324.907501 427.529114,322.121613 426.125122,319.335693 
z"/>
<path fill="#F1F1F1" opacity="1.000000" stroke="none" 
	d="
M332.511932,199.003769 
	C332.052521,197.283493 332.004181,195.559219 332.047546,193.412338 
	C336.167328,195.079910 340.261871,198.392746 344.606384,194.065536 
	C346.075226,192.602539 347.592987,189.757599 347.127686,188.091980 
	C346.252747,184.960159 343.841125,186.916962 341.942535,187.800430 
	C341.295715,188.101410 340.391052,187.848175 339.604187,187.848175 
	C339.373505,187.424973 339.142822,187.001770 338.912109,186.578568 
	C341.394623,184.764374 343.662354,182.406403 346.429688,181.313309 
	C348.527649,180.484619 353.020721,188.414490 352.048798,190.883240 
	C349.548096,197.235092 342.221008,200.909180 335.393738,199.269196 
	C334.594696,199.077255 333.747742,199.084732 332.511932,199.003769 
z"/>
<path fill="#F1F1F1" opacity="1.000000" stroke="none" 
	d="
M129.033463,136.057770 
	C129.385040,138.084229 129.572220,139.784195 129.759399,141.484146 
	C128.269775,140.829803 126.228920,140.586624 125.382805,139.452286 
	C120.930000,133.482681 116.692635,127.344513 112.613274,121.112473 
	C111.978729,120.143074 112.543938,118.388359 112.554344,116.996796 
	C113.893723,117.417809 115.794273,117.416458 116.480919,118.328758 
	C120.761368,124.015884 124.770203,129.907440 129.033463,136.057770 
z"/>
<path fill="#E9E9E9" opacity="1.000000" stroke="none" 
	d="
M425.856873,319.112427 
	C427.529114,322.121613 428.933105,324.907501 430.641968,327.848206 
	C431.606964,329.412140 432.267090,330.821259 432.970245,332.566528 
	C430.238525,334.581940 427.463806,336.261200 424.388611,337.531250 
	C426.510498,331.721436 426.306549,327.758881 422.291779,326.202728 
	C419.633575,325.172333 416.012543,326.625824 412.822540,326.967346 
	C413.530731,319.996246 418.422821,316.900574 425.856873,319.112427 
z"/>
<path fill="#F1F1F1" opacity="1.000000" stroke="none" 
	d="
M87.353600,360.626831 
	C85.617546,358.182922 83.858711,356.160980 82.623360,353.858276 
	C81.988907,352.675598 82.288666,350.991791 82.166245,349.534454 
	C83.584778,349.997894 85.542747,350.027191 86.326782,351.001343 
	C89.421501,354.846283 92.139336,358.993744 95.014198,363.016724 
	C96.547684,365.162628 98.306419,367.177155 99.583878,369.463135 
	C100.166695,370.506073 99.831146,372.062164 99.912125,373.385529 
	C98.610809,373.091583 96.770607,373.241241 96.100716,372.427521 
	C93.068939,368.744629 90.367813,364.789581 87.353600,360.626831 
z"/>
<path fill="#F1F1F1" opacity="1.000000" stroke="none" 
	d="
M376.034943,342.486145 
	C377.360443,341.690460 378.732849,341.233551 380.455383,340.676636 
	C384.616119,346.201569 388.543915,351.753021 392.152222,357.504913 
	C393.019165,358.886932 392.825409,360.934357 393.119446,362.675781 
	C391.317719,361.820831 388.881165,361.439972 387.826172,360.027313 
	C383.675415,354.469452 379.959320,348.586945 376.034943,342.486145 
z"/>
<path fill="#F0F0F0" opacity="1.000000" stroke="none" 
	d="
M185.002563,314.534729 
	C184.910233,315.158356 184.747101,315.316986 184.344330,315.381165 
	C182.796356,314.578033 181.018570,314.114380 180.119339,312.963989 
	C177.270111,309.318939 174.595963,305.510834 172.186325,301.563019 
	C171.370483,300.226379 171.544434,298.285645 172.262360,296.235901 
	C177.719727,301.562866 183.676010,306.205963 185.002563,314.534729 
z"/>
<path fill="#F1F1F1" opacity="1.000000" stroke="none" 
	d="
M201.102493,67.683945 
	C201.683838,66.277084 202.321838,65.239754 202.959839,64.202431 
	C203.992493,64.847481 205.323700,65.268570 206.005173,66.177055 
	C208.691864,69.758705 211.350662,73.388237 213.641968,77.225624 
	C214.501617,78.665367 214.331116,80.720192 214.630280,82.494591 
	C213.916672,82.764732 213.203049,83.034866 212.489441,83.305000 
	C208.712677,78.221161 204.935913,73.137314 201.102493,67.683945 
z"/>
<path fill="#F1F1F1" opacity="1.000000" stroke="none" 
	d="
M478.511780,302.668579 
	C476.692261,302.612701 474.379395,302.806000 473.510834,301.778473 
	C470.445862,298.152557 467.782196,294.168915 465.193817,290.173615 
	C464.647797,289.330811 465.065796,287.863403 465.039642,286.683807 
	C466.346985,286.822449 468.354584,286.471405 468.849060,287.178467 
	C472.301636,292.115662 475.441101,297.271820 478.511780,302.668579 
z"/>
<path fill="#F1F1F1" opacity="1.000000" stroke="none" 
	d="
M401.852905,156.827774 
	C400.346161,159.860855 398.846405,158.665756 397.695435,157.039612 
	C394.085205,151.938675 390.552002,146.780365 387.135925,141.548325 
	C386.682861,140.854401 387.079987,139.605347 387.083374,138.613388 
	C388.232056,138.827240 389.958405,138.635406 390.438446,139.318893 
	C394.390228,144.945679 398.110596,150.735031 401.852905,156.827774 
z"/>
<path fill="#F1F1F1" opacity="1.000000" stroke="none" 
	d="
M428.873566,340.675964 
	C430.335602,338.615265 431.802490,336.951019 433.532227,335.111725 
	C434.442688,336.423279 435.779724,337.994446 435.609589,339.380707 
	C435.082886,343.672577 428.989197,349.445404 424.794189,349.772461 
	C423.652161,349.861450 422.409821,348.663696 421.213501,348.056519 
	C421.865417,347.069336 422.337952,345.868134 423.206848,345.139771 
	C424.984650,343.649536 426.975403,342.413300 428.873566,340.675964 
z"/>
<path fill="#F1F1F1" opacity="1.000000" stroke="none" 
	d="
M61.509224,370.772827 
	C59.219265,367.303925 60.821465,364.782684 63.464760,363.632111 
	C64.766342,363.065521 67.627960,364.276642 68.700600,365.576874 
	C69.519539,366.569550 69.140930,370.203339 68.411255,370.501862 
	C66.440239,371.308167 63.997410,370.961090 61.509224,370.772827 
z"/>
<path fill="#F1F1F1" opacity="1.000000" stroke="none" 
	d="
M100.002228,137.997665 
	C99.243835,138.271042 98.368446,138.390213 97.742279,138.849319 
	C94.893967,140.937668 92.247040,140.180038 91.495583,137.194595 
	C91.068962,135.499725 92.543365,132.196564 94.087547,131.389694 
	C96.659790,130.045624 99.229546,131.430618 99.929062,134.715897 
	C100.097679,135.507797 99.981247,136.360382 99.995728,137.594772 
	C99.995560,138.004486 100.000000,138.000000 100.002228,137.997665 
z"/>
<path fill="#F1F1F1" opacity="1.000000" stroke="none" 
	d="
M362.676453,354.605652 
	C362.863129,355.127075 362.970276,355.343140 362.903320,355.446442 
	C361.706360,357.293488 360.819183,359.637054 359.126617,360.734711 
	C358.351776,361.237183 354.824280,359.503082 354.611938,358.389252 
	C354.301544,356.761200 355.399109,353.848083 356.731567,353.200348 
	C358.153809,352.508942 360.546692,353.814209 362.676453,354.605652 
z"/>
<path fill="#E9E9E9" opacity="1.000000" stroke="none" 
	d="
M139.578171,339.083191 
	C140.855606,336.470306 142.532013,333.914368 144.570389,330.806580 
	C146.303650,333.284393 147.750824,335.353241 149.272720,337.729797 
	C146.586761,341.487610 143.234238,339.908508 139.578171,339.083191 
z"/>
<path fill="#F1F1F1" opacity="1.000000" stroke="none" 
	d="
M332.538971,179.000732 
	C332.074097,177.935867 332.003693,176.860840 332.018677,175.388931 
	C335.317596,175.016891 338.542847,174.904968 341.735199,175.177765 
	C342.403290,175.234848 342.950134,176.710510 343.552856,177.532455 
	C342.577332,177.938065 341.625916,178.605453 340.621552,178.697952 
	C338.071503,178.932800 335.497742,178.910126 332.538971,179.000732 
z"/>
<path fill="#E9E9E9" opacity="1.000000" stroke="none" 
	d="
M148.134521,318.601685 
	C147.241577,320.816895 146.183685,322.632599 144.831055,324.954193 
	C143.093521,322.521759 141.706299,320.579742 140.251648,318.305176 
	C142.779358,318.049133 145.374451,318.125671 148.134521,318.601685 
z"/>
<path fill="#FEFEFE" opacity="1.000000" stroke="none" 
	d="
M130.658508,123.379791 
	C129.559311,119.042213 132.164169,117.673317 135.243347,117.061394 
	C139.347916,116.245682 141.933273,118.239868 142.856628,122.216934 
	C143.689346,125.803650 142.303146,128.416092 138.754288,129.553680 
	C135.359497,130.641876 133.024490,129.134491 131.571976,126.068810 
	C131.223175,125.332619 131.054260,124.511185 130.658508,123.379791 
z"/>
<path fill="#FEFEFE" opacity="1.000000" stroke="none" 
	d="
M149.998169,109.913925 
	C149.931915,105.564796 151.996185,102.465080 155.711853,103.335114 
	C158.166061,103.909767 160.662766,107.131828 161.789368,109.749954 
	C162.910736,112.355865 161.800720,115.477165 158.093124,115.933792 
	C153.842285,116.457336 150.542435,115.297333 149.998169,109.913925 
z"/>
<path fill="#FEFEFE" opacity="1.000000" stroke="none" 
	d="
M181.970886,96.932747 
	C181.090134,100.585701 179.590698,103.783951 175.703720,102.807137 
	C173.312531,102.206230 170.418350,100.187263 169.536560,98.063301 
	C168.808945,96.310738 170.025208,92.778854 171.576736,91.249397 
	C175.092316,87.783859 180.119614,90.522316 181.970886,96.932747 
z"/>
<path fill="#FEFEFE" opacity="1.000000" stroke="none" 
	d="
M198.131775,77.804573 
	C199.024033,80.753128 200.688248,83.767769 199.970245,86.024475 
	C199.223328,88.372002 196.805435,91.296509 192.956375,89.010933 
	C189.186325,86.772263 187.232361,82.736687 188.728210,79.601700 
	C190.441849,76.010277 193.240875,75.377396 198.131775,77.804573 
z"/>
<path fill="#FEFEFE" opacity="1.000000" stroke="none" 
	d="
M454.210266,308.721130 
	C451.155365,305.464966 450.733582,302.000580 453.712982,299.346313 
	C456.613586,296.762299 459.848083,297.627594 462.252808,300.832794 
	C464.805756,304.235626 464.554962,307.723114 461.492310,309.948914 
	C458.882568,311.845551 456.562653,311.243927 454.210266,308.721130 
z"/>
<path fill="#F1F1F1" opacity="1.000000" stroke="none" 
	d="
M367.415314,320.374664 
	C375.025818,316.172363 380.557800,318.265442 382.044830,325.786682 
	C376.441437,325.786682 370.886688,325.786682 364.504578,325.786682 
	C365.473694,323.889130 366.301025,322.269196 367.415314,320.374664 
z"/>
<path fill="#F7F7F7" opacity="1.000000" stroke="none" 
	d="
M182.666412,321.800415 
	C189.696945,315.620605 196.374207,317.380585 198.664474,325.837402 
	C192.870651,325.837402 187.132355,325.837402 181.006393,325.837402 
	C181.524796,324.499451 181.985443,323.310577 182.666412,321.800415 
z"/>
<path fill="#F7F7F7" opacity="1.000000" stroke="none" 
	d="
M443.656738,321.762390 
	C450.716553,315.696564 457.380707,317.493103 459.616791,325.869324 
	C453.843567,325.869324 448.119598,325.869324 441.982880,325.869324 
	C442.516602,324.444214 442.962097,323.254700 443.656738,321.762390 
z"/>
<path fill="#FEFEFE" opacity="1.000000" stroke="none" 
	d="
M163.532104,309.008972 
	C163.889267,310.799133 163.889267,312.584198 163.889267,314.821503 
	C162.377396,314.821503 161.095810,314.821503 159.384644,314.838745 
	C157.206467,310.630127 160.424637,309.985687 163.532104,309.008972 
z"/>
<path fill="#F7F7F7" opacity="1.000000" stroke="none" 
	d="
M109.653770,323.060303 
	C112.211403,318.893280 115.685730,317.350067 119.955688,318.404907 
	C123.473244,319.273895 125.991951,321.475311 126.636978,326.043884 
	C121.079903,326.043884 115.869522,326.106964 110.667351,325.929504 
	C110.230255,325.914612 109.848251,324.284393 109.653770,323.060303 
z"/>
<path fill="#FBFBFB" opacity="1.000000" stroke="none" 
	d="
M128.684784,337.159607 
	C130.015625,338.128967 131.052307,339.266876 132.256287,340.642395 
	C132.465485,341.096405 132.507355,341.312775 132.771759,341.773621 
	C132.362015,345.583801 131.240356,348.647064 126.861015,349.001984 
	C122.332443,349.368927 120.532562,346.429504 119.060654,342.584991 
	C122.138603,340.604828 125.264618,338.966461 128.684784,337.159607 
z"/>
<path fill="#F7F7F7" opacity="1.000000" stroke="none" 
	d="
M124.527252,330.042664 
	C123.463036,331.020142 121.809822,331.766113 120.444756,332.868774 
	C118.859367,334.149445 117.526680,335.742950 116.037094,337.543335 
	C111.744324,337.111389 109.575859,334.493469 108.750404,329.968842 
	C114.169662,329.968842 119.117661,329.968842 124.527252,330.042664 
z"/>
<path fill="#FBFBFB" opacity="1.000000" stroke="none" 
	d="
M243.422501,320.347900 
	C247.563980,317.573303 251.457703,317.210693 255.135178,320.247437 
	C258.946503,323.394745 259.148560,327.663239 257.929565,332.002899 
	C256.838684,335.886383 254.030457,337.971985 249.960495,338.257050 
	C243.929291,338.679474 239.184906,333.213623 240.359955,326.791504 
	C240.755936,324.627350 242.167618,322.649017 243.422501,320.347900 
z"/>
<path fill="#FEFEFE" opacity="1.000000" stroke="none" 
	d="
M412.628967,327.357666 
	C416.012543,326.625824 419.633575,325.172333 422.291779,326.202728 
	C426.306549,327.758881 426.510498,331.721436 424.034241,337.481750 
	C416.436707,338.614563 413.152191,335.743011 412.628967,327.357666 
z"/>
<path fill="#FEFEFE" opacity="1.000000" stroke="none" 
	d="
M108.590775,361.913300 
	C103.825607,362.440552 100.901489,360.048096 100.304565,356.235962 
	C100.000237,354.292450 101.940422,350.711182 103.676697,350.071930 
	C105.681458,349.333771 109.443451,350.264465 110.847488,351.867462 
	C112.264900,353.485626 112.007385,356.827759 111.892387,359.388062 
	C111.853577,360.252167 110.005920,361.035004 108.590775,361.913300 
z"/>
<path fill="#FEFEFE" opacity="1.000000" stroke="none" 
	d="
M445.905518,118.339920 
	C445.964203,123.452194 443.554321,126.283661 438.966919,126.929413 
	C433.870880,127.646767 431.257233,123.640175 429.499451,120.181259 
	C427.875305,116.985359 428.390045,112.997856 432.128326,110.494110 
	C435.741699,108.074036 439.681580,108.577072 442.710297,112.329460 
	C444.039154,113.975853 444.819733,116.064789 445.905518,118.339920 
z"/>
<path fill="#FEFEFE" opacity="1.000000" stroke="none" 
	d="
M353.756836,177.156006 
	C352.739502,174.529755 351.319214,172.189285 351.338806,169.860947 
	C351.369568,166.200165 356.904510,162.488403 360.546478,163.076233 
	C364.750092,163.754700 369.234222,169.736099 368.944641,174.278564 
	C368.699951,178.117065 364.535553,181.668091 360.427338,180.856613 
	C358.149139,180.406586 356.133514,178.627350 353.756836,177.156006 
z"/>
<path fill="#FEFEFE" opacity="1.000000" stroke="none" 
	d="
M394.003998,342.480743 
	C394.685669,341.298340 395.363983,340.518097 396.112183,339.375793 
	C398.674805,339.146912 401.987183,338.351135 403.454834,339.646118 
	C405.329376,341.300049 406.842651,344.876404 406.363342,347.176605 
	C406.018524,348.831635 402.277161,350.421600 399.841827,350.848816 
	C396.125763,351.500671 394.857971,348.377350 394.073761,345.356049 
	C393.871765,344.577789 394.015656,343.709686 394.003998,342.480743 
z"/>
<path fill="#FEFEFE" opacity="1.000000" stroke="none" 
	d="
M377.053833,153.745026 
	C379.321411,154.685806 381.570557,155.977982 383.819672,157.270157 
	C382.405243,158.664124 380.990845,160.058090 378.899445,162.119232 
	C378.054901,158.484314 377.545166,156.290375 377.053833,153.745026 
z"/>
</svg>